# xmcd CD database file
#
# Track frame offsets:
#	183
#	11093
#	23058
#	33620
#	45043
#	57643
#	67893
#	82223
#	94353
#	106123
#	120545
#	130540
#	140900
#	148795
#	159350
#	171868
#	184140
#	196280
#
# Disc length: 2782 seconds
#
# Revision: 0
# Processed by: cddbd v1.5.2PL0 Copyright (c) Steve Scherf et al.
# Submitted via: CDex 1.51
#
DISCID=f90adc12
DTITLE=Chuck Berry - Les génie du rock
DYEAR=1900
DGENRE=Blues
TTITLE0=Roll over beethoven
TTITLE1=Jonny B.goode
TTITLE2=Maybellene
TTITLE3=Rock and roll music
TTITLE4=Carol
TTITLE5=My mustang ford
TTITLE6=Sweet little sixteen
TTITLE7=Thirteen question method
TTITLE8=Oh baby doll
TTITLE9=Let's boogie
TTITLE10=Beautiful Delilah
TTITLE11=I want to be your driver
TTITLE12=Let it rock
TTITLE13=Sweet little rock and roller
TTITLE14=Route 66
TTITLE15=Run rudolph run
TTITLE16=You never can tell
TTITLE17=Jo jo gunne
EXTD=
EXTT0=
EXTT1=
EXTT2=
EXTT3=
EXTT4=
EXTT5=
EXTT6=
EXTT7=
EXTT8=
EXTT9=
EXTT10=
EXTT11=
EXTT12=
EXTT13=
EXTT14=
EXTT15=
EXTT16=
EXTT17=
PLAYORDER=
